<svg width="35" height="27" viewBox="0 0 35 27" fill="none" xmlns="http://www.w3.org/2000/svg">
<path d="M29.3321 2.23928C27.1646 1.20435 24.8414 0.439396 22.4119 0.00442496C22.3902 2.7121e-05 22.3678 0.00286125 22.3478 0.0125354C22.3277 0.0222096 22.311 0.0382452 22.2999 0.0584214C22.0024 0.611885 21.671 1.33334 21.4386 1.9033C18.8619 1.49568 16.2423 1.49568 13.6656 1.9033C13.4068 1.27163 13.115 0.655719 12.7915 0.0584214C12.7806 0.0379968 12.764 0.0215985 12.744 0.0114147C12.724 0.00123092 12.7016 -0.00225407 12.6796 0.00142502C10.2515 0.436396 7.92827 1.20135 5.75942 2.23778C5.74076 2.24606 5.72494 2.2602 5.71409 2.27828C1.30555 9.14032 0.0971653 15.8329 0.690732 22.4415C0.692383 22.4576 0.697128 22.4733 0.704678 22.4875C0.712228 22.5017 0.722424 22.5141 0.734647 22.5239C3.3078 24.5075 6.1778 26.0184 9.22449 26.9937C9.24572 27.0006 9.26844 27.0006 9.28967 26.9936C9.3109 26.9866 9.32965 26.9731 9.34348 26.9547C9.99796 26.0247 10.5816 25.0423 11.0803 24.0103C11.11 23.9503 11.0817 23.8784 11.0222 23.8544C10.107 23.4895 9.22036 23.0492 8.37026 22.5374C8.35498 22.5282 8.34211 22.5151 8.3328 22.4993C8.32349 22.4835 8.31802 22.4655 8.3169 22.4469C8.31578 22.4283 8.31903 22.4098 8.32636 22.3928C8.3337 22.3759 8.34489 22.3612 8.35893 22.35C8.53742 22.2105 8.71592 22.065 8.88591 21.9195C8.90121 21.9064 8.91965 21.8981 8.93915 21.8954C8.95866 21.8928 8.97848 21.8959 8.99641 21.9045C14.5595 24.5503 20.5844 24.5503 26.0823 21.9045C26.1003 21.8954 26.1203 21.8919 26.1401 21.8942C26.1599 21.8966 26.1787 21.9049 26.1942 21.918C26.3642 22.065 26.5413 22.2105 26.7212 22.35C26.7354 22.3609 26.7468 22.3755 26.7543 22.3923C26.7619 22.409 26.7654 22.4275 26.7646 22.4461C26.7638 22.4647 26.7586 22.4828 26.7495 22.4987C26.7405 22.5146 26.7278 22.5279 26.7127 22.5374C25.8656 23.0534 24.9844 23.4899 24.0594 23.8529C24.0452 23.8583 24.0322 23.8669 24.0214 23.8781C24.0106 23.8893 24.0022 23.9028 23.9967 23.9177C23.9912 23.9326 23.9887 23.9486 23.9895 23.9645C23.9903 23.9805 23.9944 23.9961 24.0013 24.0103C24.5113 25.0408 25.0949 26.0217 25.7367 26.9532C25.75 26.9723 25.7686 26.9866 25.7899 26.9941C25.8112 27.0016 25.8342 27.002 25.8557 26.9951C28.9076 26.0227 31.7823 24.511 34.3583 22.5239C34.3708 22.5146 34.3814 22.5026 34.3892 22.4886C34.397 22.4747 34.4019 22.4591 34.4036 22.4429C35.1119 14.8025 33.2165 8.16389 29.376 2.28128C29.3666 2.26216 29.351 2.24726 29.3321 2.23928ZM11.9118 18.4172C10.2374 18.4172 8.85616 16.8138 8.85616 14.8474C8.85616 12.8796 10.2105 11.2777 11.9118 11.2777C13.6259 11.2777 14.9944 12.8931 14.9675 14.8474C14.9675 16.8153 13.6132 18.4172 11.9118 18.4172ZM23.2094 18.4172C21.5335 18.4172 20.1538 16.8138 20.1538 14.8474C20.1538 12.8796 21.5066 11.2777 23.2094 11.2777C24.9235 11.2777 26.292 12.8931 26.2651 14.8474C26.2651 16.8153 24.9249 18.4172 23.2094 18.4172Z" fill="white"/>
</svg>
