<svg width="32" height="27" viewBox="0 0 32 27" fill="none" xmlns="http://www.w3.org/2000/svg">
<path d="M31.5498 3.20269C30.4098 3.74391 29.1851 4.10959 27.8977 4.27488C29.2261 3.42326 30.2199 2.08292 30.6938 0.50394C29.4457 1.29819 28.0797 1.85726 26.6553 2.15684C25.6974 1.06105 24.4286 0.33474 23.0459 0.0906787C21.6633 -0.153382 20.2441 0.0984568 19.0087 0.807097C17.7733 1.51574 16.7908 2.64153 16.2138 4.00969C15.6369 5.37785 15.4976 6.91183 15.8177 8.37347C13.2888 8.23743 10.8148 7.5332 8.55637 6.30649C6.29793 5.07977 4.30547 3.35798 2.70831 1.25286C2.1622 2.26215 1.84818 3.43234 1.84818 4.6786C1.84757 5.80051 2.10545 6.90524 2.59892 7.89477C3.0924 8.8843 3.80621 9.72803 4.67704 10.3511C3.66711 10.3167 2.67946 10.0243 1.7963 9.49832V9.58608C1.7962 11.1596 2.30423 12.6847 3.23419 13.9026C4.16415 15.1205 5.45876 15.9562 6.89835 16.2679C5.96147 16.5395 4.97923 16.5795 4.0258 16.3849C4.43197 17.7388 5.22314 18.9228 6.28857 19.771C7.35399 20.6193 8.64033 21.0893 9.96749 21.1154C7.71456 23.0102 4.93219 24.0381 2.06799 24.0336C1.56063 24.0337 1.0537 24.002 0.549805 23.9385C3.45713 25.9412 6.84147 27.0041 10.2979 27C21.9983 27 28.3946 16.6175 28.3946 7.61285C28.3946 7.3203 28.3878 7.02483 28.3755 6.73228C29.6197 5.7683 30.6937 4.57459 31.5471 3.20708L31.5498 3.20269Z" fill="white"/>
</svg>
